<?xml version="1.0" standalone="no"?><svg xmlns="http://www.w3.org/2000/svg" viewBox="0 0 1440 320"><path fill="#0098DA" fill-opacity="1" d="M0,64L24,53.3C48,43,96,21,144,26.7C192,32,240,64,288,80C336,96,384,96,432,101.3C480,107,528,117,576,144C624,171,672,213,720,234.7C768,256,816,256,864,240C912,224,960,192,1008,192C1056,192,1104,224,1152,224C1200,224,1248,192,1296,192C1344,192,1392,224,1416,240L1440,256L1440,320L1416,320C1392,320,1344,320,1296,320C1248,320,1200,320,1152,320C1104,320,1056,320,1008,320C960,320,912,320,864,320C816,320,768,320,720,320C672,320,624,320,576,320C528,320,480,320,432,320C384,320,336,320,288,320C240,320,192,320,144,320C96,320,48,320,24,320L0,320Z"></path></svg>