<?xml version="1.0" standalone="no"?><svg xmlns="http://www.w3.org/2000/svg" viewBox="0 0 1440 320"><path fill="#0098DA" fill-opacity="1" d="M0,320L7.7,277.3C15.5,235,31,149,46,128C61.9,107,77,149,93,165.3C108.4,181,124,171,139,149.3C154.8,128,170,96,186,74.7C201.3,53,217,43,232,48C247.7,53,263,75,279,112C294.2,149,310,203,325,218.7C340.6,235,356,213,372,213.3C387.1,213,403,235,418,202.7C433.5,171,449,85,465,69.3C480,53,495,107,511,154.7C526.5,203,542,245,557,234.7C572.9,224,588,160,604,122.7C619.4,85,635,75,650,69.3C665.8,64,681,64,697,85.3C712.3,107,728,149,743,170.7C758.7,192,774,192,790,186.7C805.2,181,821,171,836,186.7C851.6,203,867,245,883,250.7C898.1,256,914,224,929,229.3C944.5,235,960,277,975,245.3C991,213,1006,107,1022,64C1037.4,21,1053,43,1068,64C1083.9,85,1099,107,1115,144C1130.3,181,1146,235,1161,229.3C1176.8,224,1192,160,1208,149.3C1223.2,139,1239,181,1254,202.7C1269.7,224,1285,224,1301,186.7C1316.1,149,1332,75,1347,74.7C1362.6,75,1378,149,1394,197.3C1409,245,1425,267,1432,277.3L1440,288L1440,320L1432.3,320C1424.5,320,1409,320,1394,320C1378.1,320,1363,320,1347,320C1331.6,320,1316,320,1301,320C1285.2,320,1270,320,1254,320C1238.7,320,1223,320,1208,320C1192.3,320,1177,320,1161,320C1145.8,320,1130,320,1115,320C1099.4,320,1084,320,1068,320C1052.9,320,1037,320,1022,320C1006.5,320,991,320,975,320C960,320,945,320,929,320C913.5,320,898,320,883,320C867.1,320,852,320,836,320C820.6,320,805,320,790,320C774.2,320,759,320,743,320C727.7,320,712,320,697,320C681.3,320,666,320,650,320C634.8,320,619,320,604,320C588.4,320,573,320,557,320C541.9,320,526,320,511,320C495.5,320,480,320,465,320C449,320,434,320,418,320C402.6,320,387,320,372,320C356.1,320,341,320,325,320C309.7,320,294,320,279,320C263.2,320,248,320,232,320C216.8,320,201,320,186,320C170.3,320,155,320,139,320C123.9,320,108,320,93,320C77.4,320,62,320,46,320C31,320,15,320,8,320L0,320Z"></path></svg>